<svg width="70" height="26" viewBox="0 0 70 26" fill="none" xmlns="http://www.w3.org/2000/svg">
<path d="M0.25 12.3821H4.70887C4.75194 13.2655 5.07978 13.9276 5.69247 14.3683C6.34816 14.81 7.22212 15.0303 8.31536 15.0303C9.10225 15.0303 9.77943 14.8762 10.3481 14.5669C10.8726 14.2586 11.1349 13.8386 11.1349 13.309C11.1349 12.5145 10.2169 11.9186 8.38093 11.5214C7.59403 11.389 7.00391 11.2566 6.6105 11.1242C4.29296 10.5511 2.74182 9.86632 1.95492 9.0719C1.07996 8.27741 0.643483 7.21818 0.643483 5.89407C0.643483 4.21726 1.27666 2.82695 2.54504 1.72315C3.85648 0.70835 5.56134 0.200439 7.6596 0.200439C9.93206 0.200439 11.7466 0.70835 13.1021 1.72315C14.3694 2.82688 15.0467 4.26168 15.1348 6.02648H12.3152C11.4843 6.02648 10.8501 5.65199 10.4136 4.90098C10.2384 4.72509 10.0633 4.54819 9.88907 4.37136C9.36452 3.97415 8.6432 3.77555 7.72524 3.77555C6.85027 3.77555 6.19459 3.90795 5.75811 4.17276C5.3647 4.43757 5.168 4.83477 5.168 5.36446C5.168 6.07098 6.30423 6.66679 8.5777 7.15198C8.83998 7.2409 9.06957 7.30711 9.26614 7.35058C9.46299 7.39508 9.64837 7.41679 9.82358 7.41679C12.053 7.9909 13.6042 8.65292 14.4792 9.40291C15.309 10.1974 15.725 11.2566 15.725 12.5807C15.725 14.5234 15.0253 16.0234 13.6268 17.0827C12.3153 18.054 10.3482 18.5392 7.72531 18.5392C5.23357 18.5392 3.37507 18.0323 2.1517 17.0165C0.88318 16.0017 0.25 14.5234 0.25 12.5807V12.3821Z" fill="white"/>
<path d="M28.9127 12.7793H32.1912C31.7097 14.6331 30.7917 16.0461 29.4372 17.0165C28.0818 18.0323 26.3768 18.5392 24.3226 18.5392C21.8309 18.5392 19.8853 17.723 18.4868 16.0896C17.0872 14.5007 16.3885 12.228 16.3885 9.27051C16.3885 6.44641 17.0657 4.23896 18.4212 2.65005C19.8197 1.01766 21.7653 0.200439 24.2571 0.200439C26.88 0.200439 28.9127 0.994933 30.3552 2.58385C31.7537 4.21726 32.4535 6.48989 32.4535 9.40291C32.4535 9.57981 32.4535 9.73392 32.4535 9.86632C32.4535 9.99872 32.4535 10.0876 32.4535 10.1311C32.4535 10.3525 32.431 10.5066 32.3879 10.5945H21.0441C21.0871 11.9631 21.415 12.9779 22.0277 13.64C22.5953 14.3465 23.4477 14.6993 24.585 14.6993C25.3278 14.6993 25.962 14.5452 26.4865 14.2359C26.6177 14.1924 26.7375 14.1149 26.8471 14.0042C26.9558 13.8945 27.0767 13.7724 27.2078 13.64C27.2509 13.5076 27.4147 13.3317 27.6997 13.1103C27.9833 12.89 28.3881 12.7793 28.9127 12.7793ZM21.0441 7.61539H27.7323C27.6443 6.42369 27.3389 5.54129 26.8143 4.96718C26.2457 4.34959 25.4373 4.04028 24.3881 4.04028C23.4261 4.04028 22.6392 4.34959 22.0275 4.96718C21.415 5.58572 21.0871 6.46811 21.0441 7.61539Z" fill="white"/>
<path d="M33.5105 18.208V9.66766C33.5105 7.94635 33.7615 6.50127 34.2645 5.3312C34.7666 4.16236 35.4551 3.22411 36.3301 2.51752C37.16 1.8555 38.1334 1.37031 39.248 1.06101C40.3628 0.752721 41.5105 0.597595 42.6905 0.597595C42.7775 0.597595 42.8872 0.597595 43.0185 0.597595C43.1495 0.597595 43.2582 0.597595 43.3465 0.597595V5.29813H41.838C40.5696 5.29813 39.6303 5.60744 39.0186 6.22503C38.4059 6.84364 38.1005 7.81394 38.1005 9.13805V18.2081H33.5105V18.208Z" fill="white"/>
<path d="M44.9893 0.597595H47.3499C47.9614 0.597595 48.4861 0.818923 48.9236 1.25961C49.3601 1.70132 49.5793 2.23093 49.5793 2.84852V18.208H44.9893V0.597595Z" fill="white"/>
<path d="M53.2421 18.3096C54.6858 18.3096 55.8562 17.1279 55.8562 15.6703C55.8562 14.2126 54.6858 13.0309 53.2421 13.0309C51.7984 13.0309 50.628 14.2126 50.628 15.6703C50.628 17.1279 51.7984 18.3096 53.2421 18.3096Z" fill="white"/>
<path d="M65.7311 2.58377C64.2888 0.99486 62.256 0.200439 59.6331 0.200439C57.1414 0.200439 55.1958 1.01766 53.7974 2.65005C52.4418 4.23896 51.7646 6.44648 51.7646 9.27051C51.7646 10.4492 51.8774 11.5171 52.0995 12.4783C52.5181 12.2889 52.9808 12.1812 53.4692 12.1812C55.3222 12.1812 56.8244 13.6979 56.8244 15.5688C56.8244 16.4086 56.5201 17.1754 56.019 17.7673C57.0734 18.2819 58.3 18.5393 59.6986 18.5393C61.753 18.5393 63.4578 18.0324 64.8134 17.0165C66.1677 16.0462 67.0857 14.6331 67.5672 12.7794H64.2889C63.7643 12.7794 63.3596 12.8901 63.0757 13.1104C62.7908 13.3317 62.6268 13.5076 62.5838 13.64C62.4529 13.7724 62.3319 13.8946 62.2232 14.0043C62.1136 14.115 61.9937 14.1924 61.8626 14.2359C61.3381 14.5452 60.7039 14.6993 59.9609 14.6993C58.8237 14.6993 57.9713 14.3465 57.4037 13.64C56.791 12.978 56.4631 11.9632 56.4203 10.5946H67.7641C67.8071 10.5067 67.8295 10.3525 67.8295 10.1312C67.8295 10.0877 67.8295 9.9988 67.8295 9.86639C67.8295 9.73399 67.8295 9.57981 67.8295 9.40298C67.8295 6.48989 67.1298 4.21718 65.7311 2.58377ZM56.4202 7.61539C56.4631 6.46819 56.791 5.58579 57.4037 4.96718C58.0152 4.34959 58.8021 4.04028 59.7643 4.04028C60.8134 4.04028 61.6218 4.34959 62.1905 4.96718C62.7151 5.54129 63.0202 6.42369 63.1083 7.61539H56.4202Z" fill="white"/>
<path d="M54.1723 20.4597V22.9183C54.1723 23.9364 53.646 24.4421 52.5997 24.4358C51.5596 24.4166 51.0398 23.8467 51.0398 22.7198C51.0398 21.5674 51.4836 20.9784 52.3778 20.9463C52.7963 20.9463 53.1196 21.1191 53.3353 21.4713V20.0307H53.7538C53.9822 20.0308 54.1723 20.2293 54.1723 20.4597ZM51.9085 22.6814C51.9021 23.3665 52.1304 23.7124 52.6124 23.7124C53.0944 23.7124 53.3354 23.3666 53.3354 22.6814C53.3163 22.0284 53.0818 21.7082 52.6251 21.7082C52.1686 21.7083 51.9338 22.0285 51.9085 22.6814Z" fill="white"/>
<path d="M56.1131 24.4614C55.0984 24.4294 54.5911 23.834 54.5911 22.6814C54.5911 21.529 55.1048 20.9527 56.1258 20.9464C57.1911 20.9464 57.6921 21.6058 57.6287 22.9312H55.4599C55.4916 23.4498 55.7135 23.7123 56.1258 23.7123C56.3224 23.7123 56.5064 23.6291 56.6712 23.469C56.7471 23.3858 56.8423 23.3474 56.9565 23.3474H57.5779C57.3939 24.0644 56.9374 24.4614 56.1131 24.4614ZM55.4724 22.3229H56.7344C56.6838 21.8747 56.4746 21.6441 56.113 21.6441C55.7516 21.6442 55.5359 21.8747 55.4724 22.3229Z" fill="white"/>
<path d="M59.5503 23.7699C59.9053 23.7699 60.0829 23.6675 60.0829 23.4498C60.0829 23.277 59.7913 23.1361 59.2141 23.0336C58.4723 22.8992 58.0917 22.5663 58.0853 22.0349C58.0853 21.3049 58.656 20.9591 59.4234 20.9464C59.8547 20.9464 60.1971 21.0423 60.4507 21.2345C60.6979 21.433 60.8313 21.7083 60.8501 22.0604H60.3176C60.121 22.054 59.9941 21.9836 59.9434 21.8491C59.8862 21.702 59.7151 21.6187 59.4359 21.6187C59.1062 21.6187 58.9413 21.7083 58.9413 21.8812C58.9413 22.0541 59.157 22.1885 59.5946 22.2717C60.1653 22.387 60.5395 22.5342 60.7234 22.7071C60.8818 22.8736 60.958 23.0785 60.958 23.309C60.958 24.1413 60.3112 24.4487 59.4233 24.4487C58.954 24.4487 58.599 24.3462 58.3706 24.1477C58.117 23.9557 57.9902 23.6611 57.9902 23.2705H58.8525C58.8718 23.6418 59.138 23.7699 59.5503 23.7699Z" fill="white"/>
<path d="M61.827 20.0308C62.1062 20.0308 62.2393 20.1716 62.2329 20.447V20.6967H61.3895V20.0308H61.827ZM61.827 20.9976C62.0997 20.9976 62.2329 21.1321 62.2329 21.4074V24.3847H61.3895V20.9976H61.827V20.9976Z" fill="white"/>
<path d="M62.7215 22.6943C62.7215 21.5673 63.2414 21.0038 64.2814 20.9847C65.3277 20.9783 65.8541 21.4777 65.8541 22.4957V24.4998C65.8541 25.3514 65.3215 25.7802 64.2497 25.7995C63.4888 25.7995 63.0069 25.4409 62.8102 24.7238H63.7424C63.7994 24.9671 63.996 25.0824 64.3448 25.0824C64.7887 25.0824 65.017 24.8199 65.017 24.2949C65.017 24.2949 65.017 24.3013 65.017 23.9491C64.8013 24.282 64.478 24.4486 64.0595 24.4486C63.1653 24.4486 62.7215 23.8595 62.7215 22.6943ZM65.0171 22.7198C65.0233 22.0348 64.7887 21.6954 64.3068 21.6954C63.8248 21.6954 63.5903 22.0349 63.5903 22.7198C63.6095 23.3729 63.8375 23.6995 64.2942 23.6995C64.7509 23.6995 64.9918 23.3729 65.0171 22.7198Z" fill="white"/>
<path d="M68.7397 24.3846C68.4605 24.3654 68.3211 24.2309 68.3211 23.962V22.2204C68.302 21.8684 68.1117 21.6954 67.7375 21.6954C67.3634 21.6954 67.1732 21.8684 67.1668 22.2204V24.3846H66.3107V22.3933C66.3107 21.4265 66.7927 20.9463 67.7502 20.9463C68.7079 20.9463 69.1773 21.4265 69.1708 22.3933V24.3846H68.7397Z" fill="white"/>
</svg>
